<svg width="160" height="100" viewBox="0 0 160 100" xmlns="http://www.w3.org/2000/svg" xmlns:xlink="http://www.w3.org/1999/xlink">
    <g id="Group-copy">
        <path id="Path" fill="#26a6d1" stroke="none" d="M 18.850653 0 L 140.585007 0 C 145.384888 0 149.280197 3.895302 149.280197 8.699471 L 149.280197 91.304825 C 149.280197 96.104698 145.384888 100 140.585007 100 L 18.850653 100 C 14.046491 100.000481 10.155478 96.104698 10.155478 91.305305 L 10.155478 8.699471 C 10.155478 3.895302 14.050782 0 18.850653 0 Z"/>
        <path id="path1" fill="#ffffff" stroke="none" d="M 32.589363 34.781174 L 18.850653 65.184494 L 35.297813 65.184494 L 37.336781 60.336933 L 41.997414 60.336933 L 44.036385 65.184494 L 62.140083 65.184494 L 62.140083 61.484688 L 63.753235 65.184494 L 73.117897 65.184494 L 74.731041 61.406483 L 74.731041 65.184494 L 112.381844 65.184494 L 116.959984 60.462822 L 121.246773 65.184494 L 140.585007 65.223587 L 126.802917 50.067707 L 140.585007 34.781174 L 121.546707 34.781174 L 117.090164 39.415581 L 112.938316 34.781174 L 71.979202 34.781174 L 68.462029 42.628529 L 64.862366 34.781174 L 48.449535 34.781174 L 48.449535 38.355087 L 46.623714 34.781174 C 46.623714 34.781174 32.589363 34.781174 32.589363 34.781174 Z M 35.771793 39.098484 L 43.788902 39.098484 L 52.901787 59.715134 L 52.901787 39.098484 L 61.684227 39.098484 L 68.722862 53.88052 L 75.209785 39.098484 L 83.948357 39.098484 L 83.948357 60.914867 L 78.631119 60.914867 L 78.587723 43.819675 L 70.835739 60.914867 L 66.079262 60.914867 L 58.283882 43.819675 L 58.283882 60.914867 L 47.345173 60.914867 L 45.271397 56.023914 L 34.067566 56.023914 L 31.998081 60.910572 L 26.137243 60.910572 C 26.137243 60.910572 35.771793 39.098484 35.771793 39.098484 Z M 88.813072 39.098484 L 110.433952 39.098484 L 117.046768 46.241543 L 123.872734 39.098484 L 130.48555 39.098484 L 120.438057 50.063416 L 130.48555 60.901989 L 123.5728 60.901989 L 116.959984 53.675957 L 110.099205 60.901989 L 88.813072 60.901989 L 88.813072 39.098484 L 88.813072 39.098484 Z M 39.671867 42.7897 L 35.980648 51.502522 L 43.358795 51.502522 L 39.671867 42.7897 Z M 94.152252 43.615585 L 94.152252 47.598156 L 105.947372 47.598156 L 105.947372 52.03706 L 94.152252 52.03706 L 94.152252 56.384884 L 107.382179 56.384884 L 113.529594 49.980919 L 107.643013 43.611774 L 94.152252 43.611774 L 94.152252 43.615585 Z"/>
    </g>
</svg>
