<svg xmlns="http://www.w3.org/2000/svg" version="1.1" xmlns:xlink="http://www.w3.org/1999/xlink" xmlns:svgjs="http://svgjs.com/svgjs" width="1440" height="560" preserveAspectRatio="none" viewBox="0 0 1440 560"><g mask="url(&quot;#SvgjsMask1033&quot;)" fill="none"><rect width="1440" height="560" x="0" y="0" fill="rgba(255, 255, 255, 1)"></rect><path d="M720 795.57C877.23 807.3 1054.14 836.88 1170.25 730.25 1288.61 621.55 1288.79 440.54 1281.43 280 1274.48 128.52 1244.35-30.36 1130.78-130.78 1021.85-227.1 865.41-214.68 720-216.39 571.93-218.13 407.29-242.01 299.42-140.58 189.85-37.54 185.99 129.72 192.06 280 197.85 422.74 229.96 568.01 332.17 667.83 433.42 766.68 578.87 785.08 720 795.57" fill="rgba(154, 163, 255, 1)"></path><path d="M720 661.07C836.21 669.74 966.98 691.6 1052.79 612.79 1140.27 532.45 1140.41 398.66 1134.97 280 1129.84 168.04 1107.57 50.6 1023.62-23.62 943.11-94.82 827.47-85.64 720-86.89 610.55-88.19 488.87-105.83 409.14-30.86 328.15 45.3 325.29 168.92 329.78 280 334.07 385.5 357.8 492.87 433.35 566.65 508.18 639.72 615.69 653.32 720 661.07" fill="rgba(115, 175, 239, 1)"></path><path d="M720 526.58C795.2 532.19 879.81 546.33 935.34 495.34 991.94 443.35 992.03 356.78 988.51 280 985.19 207.55 970.78 131.57 916.46 83.54 864.36 37.47 789.54 43.41 720 42.6 649.18 41.76 570.44 30.34 518.85 78.85 466.45 128.13 464.6 208.13 467.51 280 470.28 348.27 485.63 417.74 534.52 465.48 582.94 512.76 652.5 521.56 720 526.58" fill="rgba(144, 194, 247, 1)"></path><path d="M720 392.08C754.18 394.63 792.64 401.06 817.88 377.88 843.61 354.25 843.65 314.9 842.05 280 840.54 247.07 833.99 212.53 809.3 190.7 785.62 169.76 751.61 172.46 720 172.09 687.81 171.71 652.02 166.52 628.57 188.57 604.75 210.97 603.91 247.33 605.23 280 606.49 311.03 613.47 342.61 635.69 364.31 657.7 385.8 689.32 389.8 720 392.08" fill="rgba(194, 221, 249, 1)"></path></g><defs><mask id="SvgjsMask1033"><rect width="1440" height="560" fill="#ffffff"></rect></mask></defs></svg>