<svg xmlns="http://www.w3.org/2000/svg" version="1.1" xmlns:xlink="http://www.w3.org/1999/xlink" xmlns:svgjs="http://svgjs.com/svgjs" width="1440" height="560" preserveAspectRatio="none" viewBox="0 0 1440 560"><g mask="url(&quot;#SvgjsMask1011&quot;)" fill="none"><rect width="1440" height="560" x="0" y="0" fill="#0e2a47"></rect><path d="M720 784.9C876.54 785.13 1050.05 830.9 1168.18 728.18 1290.4 621.92 1304.66 441.92 1300.75 280 1296.98 122.77 1260.41-38.04 1147.06-147.06 1035.47-254.43 874.56-288.84 720-278.76 575.65-269.33 441.52-202.72 345.19-94.81 254.11 7.27 233.32 143.7 221.36 280 207.74 435.3 163.63 615.94 273.16 726.84 382.91 837.98 563.83 784.67 720 784.9" fill="rgba(69, 77, 166, 1)"></path><path d="M720 653.18C835.7 653.35 963.95 687.18 1051.26 611.26 1141.6 532.72 1152.14 399.68 1149.25 280 1146.46 163.79 1119.43 44.92 1035.66-35.66 953.17-115.01 834.24-140.44 720-133 613.31-126.03 514.16-76.8 442.97 2.97 375.65 78.41 360.28 179.26 351.44 280 341.38 394.78 308.77 528.3 389.72 610.28 470.85 692.42 604.57 653.01 720 653.18" fill="#1c538e"></path><path d="M720 521.47C794.87 521.58 877.85 543.47 934.35 494.35 992.8 443.53 999.62 357.44 997.75 280 995.95 204.8 978.46 127.89 924.25 75.75 870.88 24.4 793.92 7.95 720 12.77 650.96 17.28 586.81 49.13 540.74 100.74 497.18 149.56 487.24 214.81 481.52 280 475.01 354.27 453.91 440.67 506.29 493.71 558.78 546.86 645.31 521.36 720 521.47" fill="#2774c6"></path><path d="M720 389.76C754.03 389.81 791.75 399.76 817.43 377.43 844 354.33 847.1 315.2 846.25 280 845.43 245.82 837.48 210.86 812.84 187.16 788.58 163.82 753.6 156.34 720 158.53 688.62 160.58 659.46 175.06 638.52 198.52 618.72 220.71 614.2 250.37 611.6 280 608.64 313.76 599.05 353.03 622.86 377.14 646.72 401.3 686.05 389.71 720 389.76" fill="#488fdb"></path></g><defs><mask id="SvgjsMask1011"><rect width="1440" height="560" fill="#ffffff"></rect></mask></defs></svg>